<svg width="16" height="15" viewBox="0 0 16 15" fill="none" xmlns="http://www.w3.org/2000/svg"><path d="M5.8 10c.3 0 .5-.2.5-.5S6 9 5.8 9c-.3 0-.5.2-.5.5s.2.5.5.5Z" fill="#D9D9D9"/><path d="M15 2h-2V0h-1v2H4V0H3v2H1c-.6 0-1 .4-1 1v11c0 .5.4 1 1 1h14c.5 0 1-.5 1-1V3c0-.6-.5-1-1-1Zm0 12H1V7h14v7ZM1 6V3h2v2h1V3h8v2h1V3h2v3H1Z" fill="#D9D9D9"/><path d="M8 10c.3 0 .5-.2.5-.5S8.3 9 8 9s-.5.2-.5.5.2.5.5.5ZM10.3 10c.3 0 .4-.2.4-.5s-.1-.5-.4-.5c-.4 0-.6.2-.6.5s.3.5.6.5ZM5.8 11c-.3 0-.5.2-.5.5s.2.5.5.5.5-.2.5-.5-.3-.5-.5-.5ZM3.5 10c.3 0 .5-.2.5-.5S3.8 9 3.5 9s-.5.2-.5.5.2.5.5.5ZM3.5 11c-.3 0-.5.2-.5.5s.2.5.5.5.5-.2.5-.5-.2-.5-.5-.5ZM8 11c-.3 0-.5.2-.5.5s.2.5.5.5.5-.2.5-.5-.2-.5-.5-.5ZM10.3 11c-.4 0-.6.2-.6.5s.3.5.6.5.4-.2.4-.5-.1-.5-.4-.5ZM12.5 10c.3 0 .5-.2.5-.5s-.2-.5-.5-.5-.5.2-.5.5.2.5.5.5ZM12.5 11c-.3 0-.5.2-.5.5s.2.5.5.5.5-.2.5-.5-.2-.5-.5-.5Z" fill="#D9D9D9"/></svg>